<?xml version="1.0" standalone="no"?>
<!DOCTYPE svg PUBLIC "-//W3C//DTD SVG 20010904//EN"
 "http://www.w3.org/TR/2001/REC-SVG-20010904/DTD/svg10.dtd">
<svg version="1.0" xmlns="http://www.w3.org/2000/svg"
 width="1536.000000pt" height="1024.000000pt" viewBox="0 0 1536.000000 1024.000000"
 preserveAspectRatio="xMidYMid meet">
<metadata>
Created by potrace 1.16, written by Peter Selinger 2001-2019
</metadata>
<g transform="translate(0.000000,1024.000000) scale(0.100000,-0.100000)"
fill="#000000" stroke="none">
<path d="M3511 6750 c-47 -34 -81 -84 -81 -117 0 -49 106 -135 208 -168 l52
-17 0 -1328 0 -1328 -52 -17 c-66 -21 -161 -78 -188 -112 -27 -35 -25 -62 8
-106 41 -55 90 -87 133 -87 32 0 43 7 74 43 36 41 105 169 105 194 0 11 221
13 1140 13 l1140 0 6 -27 c20 -82 104 -204 152 -221 40 -14 98 13 145 68 45
52 47 84 10 128 -38 44 -136 100 -189 108 l-44 6 0 1333 0 1334 53 15 c61 18
167 83 191 117 24 35 20 71 -14 118 -37 50 -84 81 -126 81 -53 0 -155 -127
-178 -222 l-6 -28 -1138 -2 -1137 -3 -18 53 c-20 60 -51 114 -98 166 -41 48
-88 49 -148 6z m1096 -747 c35 -29 69 -53 75 -53 18 0 71 42 149 117 l75 73
35 -36 c48 -52 178 -154 194 -154 15 0 94 60 174 132 29 27 57 48 62 46 23 -8
175 -144 265 -237 l102 -105 -99 -105 c-55 -58 -99 -111 -99 -117 0 -7 47 -57
105 -111 l105 -98 -68 -68 -69 -68 -343 350 c-188 193 -349 351 -357 351 -8 0
-171 -158 -361 -350 l-346 -350 -68 67 -67 67 94 89 c126 117 126 118 1 239
l-94 91 74 84 c41 46 79 94 85 107 6 13 25 30 42 38 18 9 63 43 100 77 l68 62
51 -43 c27 -24 79 -67 115 -95z m411 -775 l100 -97 -103 -108 -104 -108 -59
60 c-32 33 -78 82 -102 108 l-44 48 100 100 c54 54 102 98 106 97 3 -2 51 -47
106 -100z m-107 -888 c8 0 131 119 274 265 142 146 297 301 344 345 l87 78 63
-61 62 -60 -100 -101 c-56 -56 -101 -108 -101 -117 0 -8 45 -59 100 -113 l100
-99 -128 -134 c-137 -147 -221 -225 -232 -221 -5 2 -54 45 -110 96 -68 61
-110 92 -126 92 -22 0 -171 -115 -218 -168 l-19 -21 -18 23 c-10 13 -57 56
-104 96 -85 72 -85 72 -117 59 -18 -7 -77 -51 -132 -97 l-100 -83 -35 34 c-20
19 -52 46 -72 61 -20 14 -85 78 -144 142 l-108 115 102 103 c55 57 101 109
101 116 0 7 -46 60 -102 117 l-103 104 65 63 65 64 345 -349 c190 -192 353
-349 361 -349z"/>
<path d="M10333 6544 c7 -45 20 -60 71 -86 59 -31 185 -31 242 -1 44 24 70 56
76 94 3 23 0 24 -50 27 -47 3 -56 0 -73 -22 -29 -37 -99 -37 -127 -1 -17 22
-28 25 -82 25 l-63 0 6 -36z"/>
<path d="M7016 6386 c-157 -66 -236 -227 -208 -426 26 -183 124 -285 297 -309
195 -28 356 53 417 208 18 46 22 76 22 171 0 95 -4 125 -22 171 -30 76 -90
142 -160 176 -51 25 -69 28 -172 31 -103 2 -121 0 -174 -22z m231 -131 c86
-36 113 -90 113 -225 0 -104 -17 -156 -61 -197 -51 -46 -134 -56 -205 -24 -74
33 -104 100 -104 225 1 126 28 182 105 217 49 23 104 24 152 4z"/>
<path d="M7668 6405 c-3 -3 -3 -173 -1 -378 l5 -372 84 -3 84 -3 0 156 0 155
145 0 145 0 0 -155 0 -155 85 0 85 0 0 380 0 380 -85 0 -85 0 0 -150 0 -150
-145 0 -144 0 -3 148 -3 147 -80 3 c-45 1 -83 0 -87 -3z"/>
<path d="M8543 6163 c-9 -192 -15 -258 -28 -291 -18 -44 -55 -72 -95 -72 -18
0 -20 -6 -20 -75 l0 -75 58 0 c73 0 128 25 174 79 54 63 68 121 81 334 l11
187 108 0 108 0 1 -152 c1 -84 3 -218 5 -298 l4 -145 85 -3 85 -3 -2 378 -3
378 -281 3 -280 2 -11 -247z"/>
<path d="M9530 6389 c-8 -13 -194 -485 -287 -727 -4 -10 15 -12 88 -10 l94 3
26 75 26 75 150 3 149 3 28 -81 28 -80 95 0 c86 0 94 2 89 18 -3 9 -71 179
-151 377 l-145 360 -90 2 c-79 1 -92 -1 -100 -18z m151 -305 l45 -134 -98 0
c-54 0 -98 1 -98 3 0 2 20 59 45 127 25 68 45 130 45 139 0 31 17 -6 61 -135z"/>
<path d="M10150 6030 l0 -380 83 0 82 0 175 244 175 244 5 -241 5 -242 88 -3
88 -3 -3 378 -3 378 -82 0 -82 0 -180 -243 -181 -244 0 246 0 246 -85 0 -85 0
0 -380z"/>
<path d="M11020 6030 l0 -380 85 0 85 0 0 155 0 155 150 0 150 0 0 -155 0
-155 85 0 85 0 0 380 0 380 -85 0 -85 0 0 -150 0 -150 -150 0 -150 0 0 150 0
150 -85 0 -85 0 0 -380z"/>
<path d="M11800 5990 l0 -60 168 0 167 0 -3 60 -4 60 -164 0 -164 0 0 -60z"/>
<path d="M6820 5396 c-3 -2 -4 -171 -2 -375 l2 -371 86 0 85 0 -3 225 c-2 124
-2 225 -1 225 2 0 41 -77 88 -170 l86 -171 66 3 65 3 83 172 82 172 6 -136 c4
-75 7 -179 7 -232 l0 -96 87 3 86 4 -6 221 c-4 122 -7 291 -7 375 l0 152 -96
0 -95 0 -107 -219 -107 -219 -110 217 -110 216 -90 3 c-50 1 -93 1 -95 -2z"/>
<path d="M8021 5323 c-16 -43 -82 -210 -145 -372 -64 -162 -116 -297 -116
-300 0 -3 40 -5 89 -3 l89 3 28 75 27 74 147 0 146 0 26 -72 25 -73 97 -3 97
-3 -16 38 c-9 21 -77 190 -152 376 l-135 337 -88 0 -89 0 -30 -77z m165 -236
c23 -67 45 -129 48 -137 5 -13 -8 -15 -91 -13 -74 2 -97 6 -95 15 2 7 21 62
43 123 21 60 39 115 39 122 0 38 19 0 56 -110z"/>
<path d="M8650 5025 l0 -375 85 0 85 0 0 300 0 300 154 0 c175 0 166 -5 166
91 l0 59 -245 0 -245 0 0 -375z"/>
<path d="M9411 5378 c-29 -73 -282 -714 -284 -718 -4 -9 10 -10 97 -10 l84 0
24 73 25 72 149 3 149 2 26 -72 26 -73 97 -3 97 -3 -14 33 c-8 18 -76 187
-152 376 l-138 342 -89 0 c-83 0 -89 -2 -97 -22z m147 -296 c24 -70 44 -131
45 -135 1 -4 -42 -9 -96 -10 -61 -1 -96 2 -94 8 2 6 24 67 48 137 24 71 46
128 49 128 3 -1 24 -58 48 -128z"/>
<path d="M10113 5382 c-54 -19 -123 -66 -123 -83 0 -12 58 -99 66 -99 2 0 28
12 56 26 99 50 219 40 234 -20 16 -65 -24 -97 -131 -104 l-76 -5 3 -61 3 -61
78 -7 c123 -11 162 -45 142 -125 -15 -60 -160 -70 -265 -20 l-55 27 -23 -27
c-13 -16 -32 -40 -42 -54 l-20 -27 35 -27 c77 -58 119 -70 255 -70 116 0 129
2 175 27 83 44 125 106 125 186 0 69 -59 153 -123 175 -6 2 8 20 30 41 49 44
67 90 61 157 -6 62 -42 109 -105 140 -66 32 -224 38 -300 11z"/>
<path d="M10690 5025 l0 -375 79 0 80 0 156 233 c87 127 163 239 171 247 12
12 14 -21 14 -233 l0 -247 80 0 80 0 0 375 0 375 -78 0 -77 0 -173 -246 -172
-247 0 247 0 246 -80 0 -80 0 0 -375z"/>
<path d="M11500 5025 l0 -375 88 0 87 0 -3 150 -3 150 150 0 151 0 0 -150 0
-150 86 0 86 0 -4 373 -3 372 -83 0 -84 0 -1 -145 -2 -145 -145 0 -145 0 -3
148 -3 147 -84 0 -85 0 0 -375z"/>
<path d="M6824 4358 c2 -18 4 -186 5 -373 l1 -340 81 2 82 1 1 158 c1 214 4
214 151 6 l110 -157 100 -5 c55 -3 102 -4 103 -3 2 1 -60 88 -137 193 -78 105
-139 196 -135 201 7 12 237 303 262 332 14 16 9 17 -84 17 l-100 0 -107 -145
c-97 -130 -111 -145 -137 -145 l-30 0 0 145 0 145 -84 0 -84 0 2 -32z"/>
<path d="M7574 4374 c3 -9 6 -176 6 -372 l0 -357 82 3 83 4 149 222 c81 122
157 233 167 247 l19 24 -2 -35 c-1 -19 -1 -132 0 -250 l2 -215 80 3 80 4 0
369 0 370 -82 -3 -82 -3 -158 -230 c-87 -126 -163 -234 -168 -239 -7 -7 -10
74 -10 232 l0 242 -86 0 c-74 0 -85 -2 -80 -16z"/>
<path d="M8480 4263 c-1 -190 -16 -365 -34 -401 -19 -37 -53 -62 -83 -62 -22
0 -23 -4 -23 -74 0 -71 1 -74 26 -80 95 -24 216 58 249 169 15 49 33 216 38
350 l2 70 108 3 107 3 0 -296 0 -295 85 0 85 0 0 370 0 370 -280 0 -280 0 0
-127z"/>
<path d="M9210 4020 l0 -370 83 0 82 1 165 247 165 247 3 -247 2 -248 80 0 80
0 0 370 0 370 -82 0 -83 0 -62 -93 c-33 -50 -106 -158 -161 -238 l-100 -146
-7 239 -7 238 -79 0 -79 0 0 -370z"/>
<path d="M10040 4020 l0 -370 86 0 85 0 -3 224 c-2 123 -1 223 2 221 3 -2 43
-80 90 -174 l85 -171 60 0 61 0 87 176 87 176 0 -74 c0 -41 3 -143 7 -226 l6
-152 81 0 81 0 -3 370 -2 370 -98 0 -97 0 -105 -216 -105 -215 -109 215 -109
216 -94 0 -93 0 0 -370z"/>
<path d="M11010 4020 l0 -370 85 0 85 0 0 370 0 370 -85 0 -85 0 0 -370z"/>
<path d="M11350 4019 l0 -370 213 3 214 3 59 30 c70 36 104 90 104 165 -1 74
-54 162 -112 183 -9 3 -3 12 16 27 35 29 66 93 66 140 0 19 -9 53 -19 76 -41
89 -120 114 -368 114 l-173 0 0 -371z m370 211 c28 -28 26 -75 -5 -105 -22
-23 -32 -25 -115 -25 l-90 0 0 75 0 75 95 0 c82 0 98 -3 115 -20z m31 -299
c25 -30 25 -92 0 -122 -17 -21 -28 -24 -124 -27 l-106 -4 -3 92 -3 92 108 -4
c100 -3 110 -5 128 -27z"/>
</g>
</svg>
